<?xml version="1.0" standalone="yes"?>
<svg xmlns="http://www.w3.org/2000/svg" width="225" height="225">
<path style="fill:#ffffff; stroke:none;" d="M0 0L0 225L225 225L225 0L0 0z"/>
<path style="fill:#c1dcc2; stroke:none;" d="M100.667 7.33333L101.333 7.66667L100.667 7.33333z"/>
<path style="fill:#a5cea6; stroke:none;" d="M102.667 7.33333L103.333 7.66667L102.667 7.33333z"/>
<path style="fill:#7dba7f; stroke:none;" d="M104 7L104 8L107 8L104 7z"/>
<path style="fill:#43a147; stroke:none;" d="M107 7.42438C83.1197 10.5615 61.4786 16.6745 43 33.1736C32.4043 42.6343 23.2826 54.0549 17.3094 67C-17.4552 142.343 45.0021 226.916 127 216.714C178.267 210.335 218.632 163.65 217.981 112C217.275 55.9743 166.109 -0.340515 107 7.42438z"/>
<path style="fill:#7dba7f; stroke:none;" d="M118 7L118 8L121 8L118 7z"/>
<path style="fill:#a5cea6; stroke:none;" d="M121 7L122 8L121 7z"/>
<path style="fill:#c1dcc2; stroke:none;" d="M122 7L122 8L125 8L122 7M93.6667 8.33333L94.3333 8.66667L93.6667 8.33333z"/>
<path style="fill:#7dba7f; stroke:none;" d="M95.6667 8.33333L96.3333 8.66667L95.6667 8.33333M128 8L129 9L128 8z"/>
<path style="fill:#a5cea6; stroke:none;" d="M129 8L130 9L129 8z"/>
<path style="fill:#c1dcc2; stroke:none;" d="M130.667 8.33333L131.333 8.66667L130.667 8.33333M88.6667 9.33333L89.3333 9.66667L88.6667 9.33333z"/>
<path style="fill:#7dba7f; stroke:none;" d="M90 9L91 10L90 9M134 9L135 10L134 9z"/>
<path style="fill:#c1dcc2; stroke:none;" d="M135.667 9.33333L136.333 9.66667L135.667 9.33333z"/>
<path style="fill:#a5cea6; stroke:none;" d="M85 10L86 11L85 10z"/>
<path style="fill:#7dba7f; stroke:none;" d="M86 10L87 11L86 10M138 10L139 11L138 10z"/>
<path style="fill:#c1dcc2; stroke:none;" d="M139 10L140 11L139 10M81 11L82 12L81 11z"/>
<path style="fill:#7dba7f; stroke:none;" d="M82 11L83 12L82 11z"/>
<path style="fill:#a5cea6; stroke:none;" d="M142 11L143 12L142 11z"/>
<path style="fill:#c1dcc2; stroke:none;" d="M143 11L144 12L143 11M78 12L79 13L78 12z"/>
<path style="fill:#7dba7f; stroke:none;" d="M79 12L80 13L79 12M145 12L146 13L145 12z"/>
<path style="fill:#c1dcc2; stroke:none;" d="M146 12L147 13L146 12M75 13L76 14L75 13z"/>
<path style="fill:#7dba7f; stroke:none;" d="M76 13L77 14L76 13M148 13L149 14L148 13z"/>
<path style="fill:#c1dcc2; stroke:none;" d="M149 13L150 14L149 13z"/>
<path style="fill:#a5cea6; stroke:none;" d="M73 14L74 15L73 14M151 14L152 15L151 14z"/>
<path style="fill:#7dba7f; stroke:none;" d="M71 15L72 16L71 15M153 15L154 16L153 15z"/>
<path style="fill:#c1dcc2; stroke:none;" d="M154 15L155 16L154 15M68 16L69 17L68 16z"/>
<path style="fill:#7dba7f; stroke:none;" d="M69 16L70 17L69 16z"/>
<path style="fill:#c1dcc2; stroke:none;" d="M156 16L157 17L156 16M66 17L67 18L66 17M158 17L159 18L158 17M64 18L65 19L64 18M160 18L161 19L160 18M62 19L63 20L62 19M162 19L163 20L162 19M60 20L61 21L60 20M164 20L165 21L164 20z"/>
<path style="fill:#7dba7f; stroke:none;" d="M59 21L60 22L59 21M165 21L166 22L165 21z"/>
<path style="fill:#a5cea6; stroke:none;" d="M57 22L58 23L57 22M167 22L168 23L167 22z"/>
<path style="fill:#c1dcc2; stroke:none;" d="M55 23L56 24L55 23M169 23L170 24L169 23z"/>
<path style="fill:#a5cea6; stroke:none;" d="M54 24L55 25L54 24M170 24L171 25L170 24z"/>
<path style="fill:#c1dcc2; stroke:none;" d="M52 25L53 26L52 25M172 25L173 26L172 25z"/>
<path style="fill:#a5cea6; stroke:none;" d="M51 26L52 27L51 26M173 26L174 27L173 26z"/>
<path style="fill:#7dba7f; stroke:none;" d="M50 27L51 28L50 27M174 27L175 28L174 27z"/>
<path style="fill:#c1dcc2; stroke:none;" d="M48 28L49 29L48 28M176 28L177 29L176 28z"/>
<path style="fill:#a5cea6; stroke:none;" d="M47 29L48 30L47 29M177 29L178 30L177 29z"/>
<path style="fill:#7dba7f; stroke:none;" d="M46 30L47 31L46 30M178 30L179 31L178 30z"/>
<path style="fill:#c1dcc2; stroke:none;" d="M43 32L44 33L43 32M181 32L182 33L181 32M42 33L43 34L42 33M182 33L183 34L182 33z"/>
<path style="fill:#a5cea6; stroke:none;" d="M41 34L42 35L41 34z"/>
<path style="fill:#c1dcc2; stroke:none;" d="M183 34L184 35L183 34z"/>
<path style="fill:#a5cea6; stroke:none;" d="M40 35L41 36L40 35M184 35L185 36L184 35z"/>
<path style="fill:#7dba7f; stroke:none;" d="M39 36L40 37L39 36z"/>
<path style="fill:#a5cea6; stroke:none;" d="M185 36L186 37L185 36z"/>
<path style="fill:#7dba7f; stroke:none;" d="M38 37L39 38L38 37M186 37L187 38L186 37M37 38L38 39L37 38M187 38L188 39L187 38M36 39L37 40L36 39z"/>
<path style="fill:#a5cea6; stroke:none;" d="M188 39L189 40L188 39M35 40L36 41L35 40M189 40L190 41L189 40M34 41L35 42L34 41z"/>
<path style="fill:#c1dcc2; stroke:none;" d="M190 41L191 42L190 41M33 42L34 43L33 42M191 42L192 43L191 42M32 43L33 44L32 43z"/>
<path style="fill:#7dba7f; stroke:none;" d="M30 46L31 47L30 46M194 46L195 47L194 46M29 47L30 48L29 47z"/>
<path style="fill:#a5cea6; stroke:none;" d="M195 47L196 48L195 47z"/>
<path style="fill:#c1dcc2; stroke:none;" d="M28 48L29 49L28 48M196 48L197 49L196 48z"/>
<path style="fill:#a5cea6; stroke:none;" d="M161 49L156 55L161 49z"/>
<path style="fill:#ffffff; stroke:none;" d="M64 100L63 100L39 125L39 126C50.8418 137.842 62.2052 150.147 74.0008 162C77.1515 165.166 83.1255 173.793 88 173.793C95.6966 173.793 107.811 155.19 113 150C137.673 125.325 161.332 99.6675 186 75C181.309 68.3404 174.785 63.1269 169.424 57.0008C167.584 54.8974 165.166 51.2068 161.999 51.2068C156.875 51.2068 150.338 60.6621 147 64C133.873 77.1276 120.879 90.5726 108.039 104C103.746 108.49 94.721 122.944 88 122.944C80.6036 122.944 68.6123 105.28 64 100z"/>
<path style="fill:#7dba7f; stroke:none;" d="M197 50L198 51L197 50z"/>
<path style="fill:#a5cea6; stroke:none;" d="M26 51L27 52L26 51M198 51L199 52L198 51z"/>
<path style="fill:#c1dcc2; stroke:none;" d="M25 52L26 53L25 52z"/>
<path style="fill:#7dba7f; stroke:none;" d="M24 54L25 55L24 54z"/>
<path style="fill:#a5cea6; stroke:none;" d="M200 54L201 55L200 54z"/>
<path style="fill:#c1dcc2; stroke:none;" d="M23 55L24 56L23 55z"/>
<path style="fill:#7dba7f; stroke:none;" d="M155 55L156 56L155 55M154 56L155 57L154 56M201 56L202 57L201 56z"/>
<path style="fill:#a5cea6; stroke:none;" d="M22 57L23 58L22 57z"/>
<path style="fill:#7dba7f; stroke:none;" d="M153 57L154 58L153 57z"/>
<path style="fill:#c1dcc2; stroke:none;" d="M169 57L170 58L169 57M202 57L203 58L202 57z"/>
<path style="fill:#7dba7f; stroke:none;" d="M152 58L153 59L152 58z"/>
<path style="fill:#c1dcc2; stroke:none;" d="M170 58L171 59L170 58z"/>
<path style="fill:#7dba7f; stroke:none;" d="M21 59L22 60L21 59M151 59L152 60L151 59z"/>
<path style="fill:#c1dcc2; stroke:none;" d="M171 59L172 60L171 59z"/>
<path style="fill:#7dba7f; stroke:none;" d="M203 59L204 60L203 59z"/>
<path style="fill:#c1dcc2; stroke:none;" d="M20 60L21 61L20 60z"/>
<path style="fill:#7dba7f; stroke:none;" d="M150 60L151 61L150 60z"/>
<path style="fill:#c1dcc2; stroke:none;" d="M172 60L173 61L172 60z"/>
<path style="fill:#7dba7f; stroke:none;" d="M149 61L150 62L149 61z"/>
<path style="fill:#c1dcc2; stroke:none;" d="M173 61L174 62L173 61z"/>
<path style="fill:#7dba7f; stroke:none;" d="M204 61L205 62L204 61z"/>
<path style="fill:#c1dcc2; stroke:none;" d="M19 62L20 63L19 62z"/>
<path style="fill:#7dba7f; stroke:none;" d="M148 62L149 63L148 62z"/>
<path style="fill:#c1dcc2; stroke:none;" d="M174 62L175 63L174 62M205 62L206 63L205 62z"/>
<path style="fill:#7dba7f; stroke:none;" d="M147 63L148 64L147 63z"/>
<path style="fill:#c1dcc2; stroke:none;" d="M175 63L176 64L175 63M18 64L19 65L18 64z"/>
<path style="fill:#7dba7f; stroke:none;" d="M146 64L147 65L146 64z"/>
<path style="fill:#c1dcc2; stroke:none;" d="M176 64L177 65L176 64M206 64L207 65L206 64M177 65L178 66L177 65M17 66L18 67L17 66z"/>
<path style="fill:#a5cea6; stroke:none;" d="M178 66L179 67L178 66z"/>
<path style="fill:#c1dcc2; stroke:none;" d="M207 66L208 67L207 66z"/>
<path style="fill:#a5cea6; stroke:none;" d="M179 67L180 68L179 67z"/>
<path style="fill:#7dba7f; stroke:none;" d="M207 67L208 68L207 67z"/>
<path style="fill:#c1dcc2; stroke:none;" d="M16 68L17 69L16 68z"/>
<path style="fill:#a5cea6; stroke:none;" d="M180 68L181 69L180 68z"/>
<path style="fill:#c1dcc2; stroke:none;" d="M208 68L209 69L208 68z"/>
<path style="fill:#a5cea6; stroke:none;" d="M181 69L182 70L181 69z"/>
<path style="fill:#7dba7f; stroke:none;" d="M208 69L209 70L208 69z"/>
<path style="fill:#c1dcc2; stroke:none;" d="M15 70L16 71L15 70z"/>
<path style="fill:#a5cea6; stroke:none;" d="M182 70L183 71L182 70z"/>
<path style="fill:#c1dcc2; stroke:none;" d="M209 70L210 71L209 70z"/>
<path style="fill:#7dba7f; stroke:none;" d="M15 71L16 72L15 71M183 71L184 72L183 71M209 71L210 72L209 71M184 72L185 73L184 72z"/>
<path style="fill:#a5cea6; stroke:none;" d="M14 73L15 74L14 73z"/>
<path style="fill:#7dba7f; stroke:none;" d="M185 73L186 74L185 73z"/>
<path style="fill:#a5cea6; stroke:none;" d="M210 73L211 74L210 73z"/>
<path style="fill:#c1dcc2; stroke:none;" d="M13 75L14 76L13 75M136 75L137 76L136 75z"/>
<path style="fill:#a5cea6; stroke:none;" d="M185 75L186 76L185 75z"/>
<path style="fill:#c1dcc2; stroke:none;" d="M211 75L212 76L211 75z"/>
<path style="fill:#7dba7f; stroke:none;" d="M13 76L14 77L13 76z"/>
<path style="fill:#c1dcc2; stroke:none;" d="M135 76L136 77L135 76z"/>
<path style="fill:#a5cea6; stroke:none;" d="M184 76L185 77L184 76z"/>
<path style="fill:#7dba7f; stroke:none;" d="M211 76L212 77L211 76z"/>
<path style="fill:#c1dcc2; stroke:none;" d="M134 77L135 78L134 77z"/>
<path style="fill:#a5cea6; stroke:none;" d="M183 77L184 78L183 77z"/>
<path style="fill:#c1dcc2; stroke:none;" d="M12 78L13 79L12 78M133 78L134 79L133 78z"/>
<path style="fill:#a5cea6; stroke:none;" d="M182 78L183 79L182 78z"/>
<path style="fill:#c1dcc2; stroke:none;" d="M212 78L213 79L212 78z"/>
<path style="fill:#7dba7f; stroke:none;" d="M12 79L13 80L12 79z"/>
<path style="fill:#c1dcc2; stroke:none;" d="M132 79L133 80L132 79z"/>
<path style="fill:#a5cea6; stroke:none;" d="M181 79L182 80L181 79z"/>
<path style="fill:#7dba7f; stroke:none;" d="M212 79L213 80L212 79z"/>
<path style="fill:#c1dcc2; stroke:none;" d="M131 80L132 81L131 80M180 80L181 81L180 80M11 81L12 82L11 81M130 81L131 82L130 81M179 81L180 82L179 81M213 81L214 82L213 81z"/>
<path style="fill:#7dba7f; stroke:none;" d="M11 82L12 83L11 82z"/>
<path style="fill:#c1dcc2; stroke:none;" d="M129 82L130 83L129 82M178 82L179 83L178 82z"/>
<path style="fill:#7dba7f; stroke:none;" d="M213 82L214 83L213 82z"/>
<path style="fill:#c1dcc2; stroke:none;" d="M128 83L129 84L128 83M177 83L178 84L177 83z"/>
<path style="fill:#a5cea6; stroke:none;" d="M127 84L128 85L127 84z"/>
<path style="fill:#c1dcc2; stroke:none;" d="M176 84L177 85L176 84z"/>
<path style="fill:#a5cea6; stroke:none;" d="M10 85L11 86L10 85M126 85L127 86L126 85z"/>
<path style="fill:#c1dcc2; stroke:none;" d="M175 85L176 86L175 85M214 85L215 86L214 85z"/>
<path style="fill:#7dba7f; stroke:none;" d="M10 86L11 87L10 86z"/>
<path style="fill:#a5cea6; stroke:none;" d="M125 86L126 87L125 86z"/>
<path style="fill:#c1dcc2; stroke:none;" d="M174 86L175 87L174 86z"/>
<path style="fill:#7dba7f; stroke:none;" d="M214 86L215 87L214 86z"/>
<path style="fill:#a5cea6; stroke:none;" d="M124 87L125 88L124 87z"/>
<path style="fill:#c1dcc2; stroke:none;" d="M173 87L174 88L173 87M9.33333 88.6667L9.66667 89.3333L9.33333 88.6667z"/>
<path style="fill:#a5cea6; stroke:none;" d="M123 88L124 89L123 88z"/>
<path style="fill:#c1dcc2; stroke:none;" d="M172 88L173 89L172 88z"/>
<path style="fill:#7dba7f; stroke:none;" d="M122 89L123 90L122 89z"/>
<path style="fill:#c1dcc2; stroke:none;" d="M171 89L172 90L171 89M215 89L216 90L215 89z"/>
<path style="fill:#7dba7f; stroke:none;" d="M9 90L10 91L9 90M121 90L122 91L121 90M215 90L216 91L215 90M120 91L121 92L120 91M119 92L120 93L119 92z"/>
<path style="fill:#c1dcc2; stroke:none;" d="M8.33333 93.6667L8.66667 94.3333L8.33333 93.6667z"/>
<path style="fill:#7dba7f; stroke:none;" d="M118 93L119 94L118 93z"/>
<path style="fill:#c1dcc2; stroke:none;" d="M216.333 93.6667L216.667 94.3333L216.333 93.6667z"/>
<path style="fill:#7dba7f; stroke:none;" d="M117 94L118 95L117 94M8.33333 95.6667L8.66667 96.3333L8.33333 95.6667M116 95L117 96L116 95z"/>
<path style="fill:#a5cea6; stroke:none;" d="M216 95L217 96L216 95z"/>
<path style="fill:#7dba7f; stroke:none;" d="M115 96L116 97L115 96M216 96L217 97L216 96M114 97L115 98L114 97M113 98L114 99L113 98z"/>
<path style="fill:#c1dcc2; stroke:none;" d="M7.33333 100.667L7.66667 101.333L7.33333 100.667z"/>
<path style="fill:#7dba7f; stroke:none;" d="M62 100L63 101L62 100M161 100L162 101L161 100z"/>
<path style="fill:#c1dcc2; stroke:none;" d="M217 100L217 103L218 103L217 100z"/>
<path style="fill:#7dba7f; stroke:none;" d="M61 101L62 102L61 101M160 101L161 102L160 101z"/>
<path style="fill:#a5cea6; stroke:none;" d="M7.33333 102.667L7.66667 103.333L7.33333 102.667z"/>
<path style="fill:#7dba7f; stroke:none;" d="M159 102L160 103L159 102M158 103L159 104L158 103z"/>
<path style="fill:#a5cea6; stroke:none;" d="M217 103L218 104L217 103z"/>
<path style="fill:#7dba7f; stroke:none;" d="M7.33333 104.667L7.66667 105.333L7.33333 104.667z"/>
<path style="fill:#c1dcc2; stroke:none;" d="M67 104L68 105L67 104z"/>
<path style="fill:#7dba7f; stroke:none;" d="M157 104L158 105L157 104M217 104L217 107L218 107L217 104z"/>
<path style="fill:#c1dcc2; stroke:none;" d="M68 105L69 106L68 105z"/>
<path style="fill:#7dba7f; stroke:none;" d="M156 105L157 106L156 105z"/>
<path style="fill:#c1dcc2; stroke:none;" d="M69 106L70 107L69 106z"/>
<path style="fill:#7dba7f; stroke:none;" d="M155 106L156 107L155 106z"/>
<path style="fill:#c1dcc2; stroke:none;" d="M70 107L71 108L70 107z"/>
<path style="fill:#7dba7f; stroke:none;" d="M154 107L155 108L154 107z"/>
<path style="fill:#c1dcc2; stroke:none;" d="M71 108L72 109L71 108z"/>
<path style="fill:#7dba7f; stroke:none;" d="M153 108L154 109L153 108z"/>
<path style="fill:#c1dcc2; stroke:none;" d="M72 109L73 110L72 109M103 109L104 110L103 109z"/>
<path style="fill:#7dba7f; stroke:none;" d="M152 109L153 110L152 109z"/>
<path style="fill:#c1dcc2; stroke:none;" d="M73 110L74 111L73 110M102 110L103 111L102 110z"/>
<path style="fill:#7dba7f; stroke:none;" d="M151 110L152 111L151 110z"/>
<path style="fill:#c1dcc2; stroke:none;" d="M74 111L75 112L74 111M101 111L102 112L101 111z"/>
<path style="fill:#a5cea6; stroke:none;" d="M150 111L151 112L150 111z"/>
<path style="fill:#c1dcc2; stroke:none;" d="M75 112L76 113L75 112M100 112L101 113L100 112z"/>
<path style="fill:#a5cea6; stroke:none;" d="M149 112L150 113L149 112M76 113L77 114L76 113z"/>
<path style="fill:#c1dcc2; stroke:none;" d="M99 113L100 114L99 113z"/>
<path style="fill:#a5cea6; stroke:none;" d="M148 113L149 114L148 113M77 114L78 115L77 114z"/>
<path style="fill:#c1dcc2; stroke:none;" d="M98 114L99 115L98 114z"/>
<path style="fill:#a5cea6; stroke:none;" d="M147 114L148 115L147 114M78 115L79 116L78 115z"/>
<path style="fill:#c1dcc2; stroke:none;" d="M97 115L98 116L97 115z"/>
<path style="fill:#a5cea6; stroke:none;" d="M146 115L147 116L146 115M79 116L80 117L79 116z"/>
<path style="fill:#c1dcc2; stroke:none;" d="M96 116L97 117L96 116M145 116L146 117L145 116z"/>
<path style="fill:#a5cea6; stroke:none;" d="M80 117L81 118L80 117z"/>
<path style="fill:#c1dcc2; stroke:none;" d="M95 117L96 118L95 117M144 117L145 118L144 117z"/>
<path style="fill:#7dba7f; stroke:none;" d="M7 118L7 121L8 121L7 118z"/>
<path style="fill:#c1dcc2; stroke:none;" d="M45 118L46 119L45 118z"/>
<path style="fill:#7dba7f; stroke:none;" d="M81 118L82 119L81 118z"/>
<path style="fill:#c1dcc2; stroke:none;" d="M94 118L95 119L94 118M143 118L144 119L143 118z"/>
<path style="fill:#7dba7f; stroke:none;" d="M217 118L217 121L218 121L217 118z"/>
<path style="fill:#c1dcc2; stroke:none;" d="M44 119L45 120L44 119z"/>
<path style="fill:#7dba7f; stroke:none;" d="M82 119L83 120L82 119z"/>
<path style="fill:#a5cea6; stroke:none;" d="M93 119L94 120L93 119z"/>
<path style="fill:#c1dcc2; stroke:none;" d="M142 119L143 120L142 119M43 120L44 121L43 120z"/>
<path style="fill:#7dba7f; stroke:none;" d="M83 120L84 121L83 120z"/>
<path style="fill:#a5cea6; stroke:none;" d="M92 120L93 121L92 120z"/>
<path style="fill:#c1dcc2; stroke:none;" d="M141 120L142 121L141 120z"/>
<path style="fill:#a5cea6; stroke:none;" d="M7.33333 121.667L7.66667 122.333L7.33333 121.667z"/>
<path style="fill:#c1dcc2; stroke:none;" d="M42 121L43 122L42 121z"/>
<path style="fill:#7dba7f; stroke:none;" d="M84 121L85 122L84 121z"/>
<path style="fill:#a5cea6; stroke:none;" d="M91 121L92 122L91 121z"/>
<path style="fill:#c1dcc2; stroke:none;" d="M140 121L141 122L140 121z"/>
<path style="fill:#a5cea6; stroke:none;" d="M217.333 121.667L217.667 122.333L217.333 121.667z"/>
<path style="fill:#c1dcc2; stroke:none;" d="M41 122L42 123L41 122z"/>
<path style="fill:#7dba7f; stroke:none;" d="M85 122L86 123L85 122z"/>
<path style="fill:#a5cea6; stroke:none;" d="M90 122L91 123L90 122z"/>
<path style="fill:#c1dcc2; stroke:none;" d="M139 122L140 123L139 122M7.33333 123.667L7.66667 124.333L7.33333 123.667M40 123L41 124L40 123z"/>
<path style="fill:#7dba7f; stroke:none;" d="M86 123L87 124L86 123z"/>
<path style="fill:#a5cea6; stroke:none;" d="M89 123L90 124L89 123z"/>
<path style="fill:#c1dcc2; stroke:none;" d="M138 123L139 124L138 123M217.333 123.667L217.667 124.333L217.333 123.667M39 124L40 125L39 124z"/>
<path style="fill:#7dba7f; stroke:none;" d="M87.6667 124.333L88.3333 124.667L87.6667 124.333z"/>
<path style="fill:#c1dcc2; stroke:none;" d="M137 124L138 125L137 124z"/>
<path style="fill:#7dba7f; stroke:none;" d="M8 128L9 129L8 128M216 128L217 129L216 128z"/>
<path style="fill:#a5cea6; stroke:none;" d="M8 129L9 130L8 129M216 129L217 130L216 129z"/>
<path style="fill:#c1dcc2; stroke:none;" d="M8.33333 130.667L8.66667 131.333L8.33333 130.667z"/>
<path style="fill:#7dba7f; stroke:none;" d="M43 130L44 131L43 130z"/>
<path style="fill:#c1dcc2; stroke:none;" d="M216.333 130.667L216.667 131.333L216.333 130.667z"/>
<path style="fill:#7dba7f; stroke:none;" d="M44 131L45 132L44 131M45 132L46 133L45 132M46 133L47 134L46 133M9 134L10 135L9 134M47 134L48 135L47 134M215 134L216 135L215 134z"/>
<path style="fill:#c1dcc2; stroke:none;" d="M9.33333 135.667L9.66667 136.333L9.33333 135.667z"/>
<path style="fill:#7dba7f; stroke:none;" d="M48 135L49 136L48 135z"/>
<path style="fill:#c1dcc2; stroke:none;" d="M215 135L216 136L215 135z"/>
<path style="fill:#7dba7f; stroke:none;" d="M49 136L50 137L49 136M126 136L127 137L126 136M50 137L51 138L50 137M125 137L126 138L125 137M10 138L11 139L10 138M51 138L52 139L51 138M124 138L125 139L124 138M214 138L215 139L214 138z"/>
<path style="fill:#a5cea6; stroke:none;" d="M10 139L11 140L10 139M52 139L53 140L52 139z"/>
<path style="fill:#7dba7f; stroke:none;" d="M123 139L124 140L123 139z"/>
<path style="fill:#c1dcc2; stroke:none;" d="M214 139L215 140L214 139z"/>
<path style="fill:#a5cea6; stroke:none;" d="M53 140L54 141L53 140z"/>
<path style="fill:#7dba7f; stroke:none;" d="M122 140L123 141L122 140z"/>
<path style="fill:#a5cea6; stroke:none;" d="M54 141L55 142L54 141z"/>
<path style="fill:#7dba7f; stroke:none;" d="M121 141L122 142L121 141M11 142L12 143L11 142z"/>
<path style="fill:#a5cea6; stroke:none;" d="M55 142L56 143L55 142z"/>
<path style="fill:#7dba7f; stroke:none;" d="M120 142L121 143L120 142M213 142L214 143L213 142z"/>
<path style="fill:#c1dcc2; stroke:none;" d="M11 143L12 144L11 143M56 143L57 144L56 143z"/>
<path style="fill:#7dba7f; stroke:none;" d="M119 143L120 144L119 143z"/>
<path style="fill:#c1dcc2; stroke:none;" d="M213 143L214 144L213 143M57 144L58 145L57 144z"/>
<path style="fill:#7dba7f; stroke:none;" d="M118 144L119 145L118 144M12 145L13 146L12 145z"/>
<path style="fill:#c1dcc2; stroke:none;" d="M58 145L59 146L58 145z"/>
<path style="fill:#7dba7f; stroke:none;" d="M117 145L118 146L117 145M212 145L213 146L212 145z"/>
<path style="fill:#c1dcc2; stroke:none;" d="M12 146L13 147L12 146M59 146L60 147L59 146z"/>
<path style="fill:#a5cea6; stroke:none;" d="M116 146L117 147L116 146z"/>
<path style="fill:#c1dcc2; stroke:none;" d="M212 146L213 147L212 146M60 147L61 148L60 147z"/>
<path style="fill:#a5cea6; stroke:none;" d="M115 147L116 148L115 147z"/>
<path style="fill:#7dba7f; stroke:none;" d="M13 148L14 149L13 148z"/>
<path style="fill:#c1dcc2; stroke:none;" d="M61 148L62 149L61 148z"/>
<path style="fill:#a5cea6; stroke:none;" d="M114 148L115 149L114 148z"/>
<path style="fill:#7dba7f; stroke:none;" d="M211 148L212 149L211 148z"/>
<path style="fill:#c1dcc2; stroke:none;" d="M13 149L14 150L13 149M62 149L63 150L62 149z"/>
<path style="fill:#a5cea6; stroke:none;" d="M113 149L114 150L113 149z"/>
<path style="fill:#c1dcc2; stroke:none;" d="M211 149L212 150L211 149M63 150L64 151L63 150M112 150L113 151L112 150z"/>
<path style="fill:#a5cea6; stroke:none;" d="M14 151L15 152L14 151z"/>
<path style="fill:#c1dcc2; stroke:none;" d="M64 151L65 152L64 151M111 151L112 152L111 151z"/>
<path style="fill:#a5cea6; stroke:none;" d="M210 151L211 152L210 151z"/>
<path style="fill:#c1dcc2; stroke:none;" d="M65 152L66 153L65 152M110 152L111 153L110 152z"/>
<path style="fill:#7dba7f; stroke:none;" d="M15 153L16 154L15 153z"/>
<path style="fill:#c1dcc2; stroke:none;" d="M66 153L67 154L66 153M109 153L110 154L109 153z"/>
<path style="fill:#7dba7f; stroke:none;" d="M209 153L210 154L209 153z"/>
<path style="fill:#c1dcc2; stroke:none;" d="M15 154L16 155L15 154M108 154L109 155L108 154M209 154L210 155L209 154M107 155L108 156L107 155z"/>
<path style="fill:#7dba7f; stroke:none;" d="M208 155L209 156L208 155z"/>
<path style="fill:#c1dcc2; stroke:none;" d="M16 156L17 157L16 156M106 156L107 157L106 156M208 156L209 157L208 156M105 157L106 158L105 157M17 158L18 159L17 158M104 158L105 159L104 158M207 158L208 159L207 158M103 159L104 160L103 159M18 160L19 161L18 160M206 160L207 161L206 160M19 162L20 163L19 162M205 162L206 163L205 162z"/>
<path style="fill:#7dba7f; stroke:none;" d="M75 163L76 164L75 163M204 163L205 164L204 163z"/>
<path style="fill:#c1dcc2; stroke:none;" d="M20 164L21 165L20 164z"/>
<path style="fill:#7dba7f; stroke:none;" d="M76 164L77 165L76 164z"/>
<path style="fill:#c1dcc2; stroke:none;" d="M204 164L205 165L204 164z"/>
<path style="fill:#7dba7f; stroke:none;" d="M21 165L22 166L21 165M77 165L78 166L77 165M203 165L204 166L203 165M78 166L79 167L78 166z"/>
<path style="fill:#a5cea6; stroke:none;" d="M22 167L23 168L22 167z"/>
<path style="fill:#7dba7f; stroke:none;" d="M79 167L80 168L79 167z"/>
<path style="fill:#a5cea6; stroke:none;" d="M202 167L203 168L202 167z"/>
<path style="fill:#7dba7f; stroke:none;" d="M80 168L81 169L80 168z"/>
<path style="fill:#c1dcc2; stroke:none;" d="M23 169L24 170L23 169z"/>
<path style="fill:#7dba7f; stroke:none;" d="M81 169L82 170L81 169z"/>
<path style="fill:#c1dcc2; stroke:none;" d="M201 169L202 170L201 169z"/>
<path style="fill:#7dba7f; stroke:none;" d="M24 170L25 171L24 170M82 170L83 171L82 170M93 170L94 171L93 170z"/>
<path style="fill:#a5cea6; stroke:none;" d="M200 170L201 171L200 170z"/>
<path style="fill:#7dba7f; stroke:none;" d="M83 171L84 172L83 171M92 171L93 172L92 171z"/>
<path style="fill:#c1dcc2; stroke:none;" d="M25 172L26 173L25 172z"/>
<path style="fill:#7dba7f; stroke:none;" d="M84 172L85 173L84 172M91 172L92 173L91 172z"/>
<path style="fill:#c1dcc2; stroke:none;" d="M199 172L200 173L199 172z"/>
<path style="fill:#a5cea6; stroke:none;" d="M26 173L27 174L26 173z"/>
<path style="fill:#7dba7f; stroke:none;" d="M85 173L86 174L85 173M90 173L91 174L90 173z"/>
<path style="fill:#a5cea6; stroke:none;" d="M198 173L199 174L198 173M86 174L87 175L86 174z"/>
<path style="fill:#7dba7f; stroke:none;" d="M89 174L90 175L89 174M197 174L198 175L197 174z"/>
<path style="fill:#a5cea6; stroke:none;" d="M87 175L88 176L87 175z"/>
<path style="fill:#7dba7f; stroke:none;" d="M88 175L89 176L88 175z"/>
<path style="fill:#c1dcc2; stroke:none;" d="M28 176L29 177L28 176M196 176L197 177L196 176z"/>
<path style="fill:#a5cea6; stroke:none;" d="M29 177L30 178L29 177M195 177L196 178L195 177z"/>
<path style="fill:#7dba7f; stroke:none;" d="M30 178L31 179L30 178M194 178L195 179L194 178z"/>
<path style="fill:#c1dcc2; stroke:none;" d="M32 181L33 182L32 181M192 181L193 182L192 181M33 182L34 183L33 182M191 182L192 183L191 182z"/>
<path style="fill:#a5cea6; stroke:none;" d="M34 183L35 184L34 183z"/>
<path style="fill:#c1dcc2; stroke:none;" d="M190 183L191 184L190 183z"/>
<path style="fill:#a5cea6; stroke:none;" d="M35 184L36 185L35 184M189 184L190 185L189 184z"/>
<path style="fill:#7dba7f; stroke:none;" d="M36 185L37 186L36 185z"/>
<path style="fill:#a5cea6; stroke:none;" d="M188 185L189 186L188 185z"/>
<path style="fill:#7dba7f; stroke:none;" d="M37 186L38 187L37 186M187 186L188 187L187 186M38 187L39 188L38 187M186 187L187 188L186 187M39 188L40 189L39 188z"/>
<path style="fill:#a5cea6; stroke:none;" d="M185 188L186 189L185 188M40 189L41 190L40 189M184 189L185 190L184 189M41 190L42 191L41 190z"/>
<path style="fill:#c1dcc2; stroke:none;" d="M183 190L184 191L183 190M42 191L43 192L42 191M182 191L183 192L182 191M43 192L44 193L43 192M181 192L182 193L181 192z"/>
<path style="fill:#7dba7f; stroke:none;" d="M46 194L47 195L46 194M178 194L179 195L178 194z"/>
<path style="fill:#a5cea6; stroke:none;" d="M47 195L48 196L47 195M177 195L178 196L177 195z"/>
<path style="fill:#c1dcc2; stroke:none;" d="M48 196L49 197L48 196M176 196L177 197L176 196z"/>
<path style="fill:#7dba7f; stroke:none;" d="M50 197L51 198L50 197M174 197L175 198L174 197z"/>
<path style="fill:#a5cea6; stroke:none;" d="M51 198L52 199L51 198M173 198L174 199L173 198z"/>
<path style="fill:#c1dcc2; stroke:none;" d="M52 199L53 200L52 199M172 199L173 200L172 199z"/>
<path style="fill:#7dba7f; stroke:none;" d="M54 200L55 201L54 200z"/>
<path style="fill:#a5cea6; stroke:none;" d="M170 200L171 201L170 200z"/>
<path style="fill:#c1dcc2; stroke:none;" d="M55 201L56 202L55 201z"/>
<path style="fill:#a5cea6; stroke:none;" d="M57 202L58 203L57 202M167 202L168 203L167 202z"/>
<path style="fill:#7dba7f; stroke:none;" d="M59 203L60 204L59 203M165 203L166 204L165 203z"/>
<path style="fill:#c1dcc2; stroke:none;" d="M60 204L61 205L60 204z"/>
<path style="fill:#7dba7f; stroke:none;" d="M163 204L164 205L163 204z"/>
<path style="fill:#c1dcc2; stroke:none;" d="M164 204L165 205L164 204M62 205L63 206L62 205M162 205L163 206L162 205z"/>
<path style="fill:#a5cea6; stroke:none;" d="M64 206L65 207L64 206z"/>
<path style="fill:#c1dcc2; stroke:none;" d="M160 206L161 207L160 206M66 207L67 208L66 207z"/>
<path style="fill:#7dba7f; stroke:none;" d="M157 207L158 208L157 207z"/>
<path style="fill:#c1dcc2; stroke:none;" d="M158 207L159 208L158 207M68 208L69 209L68 208z"/>
<path style="fill:#7dba7f; stroke:none;" d="M155 208L156 209L155 208z"/>
<path style="fill:#c1dcc2; stroke:none;" d="M156 208L157 209L156 208M70 209L71 210L70 209z"/>
<path style="fill:#7dba7f; stroke:none;" d="M71 209L72 210L71 209M153 209L154 210L153 209z"/>
<path style="fill:#c1dcc2; stroke:none;" d="M154 209L155 210L154 209z"/>
<path style="fill:#a5cea6; stroke:none;" d="M73 210L74 211L73 210z"/>
<path style="fill:#c1dcc2; stroke:none;" d="M151 210L152 211L151 210M75 211L76 212L75 211z"/>
<path style="fill:#7dba7f; stroke:none;" d="M76 211L77 212L76 211M148 211L149 212L148 211z"/>
<path style="fill:#c1dcc2; stroke:none;" d="M149 211L150 212L149 211M78 212L79 213L78 212z"/>
<path style="fill:#7dba7f; stroke:none;" d="M79 212L80 213L79 212M145 212L146 213L145 212z"/>
<path style="fill:#c1dcc2; stroke:none;" d="M146 212L147 213L146 212M81 213L82 214L81 213z"/>
<path style="fill:#7dba7f; stroke:none;" d="M82 213L83 214L82 213z"/>
<path style="fill:#a5cea6; stroke:none;" d="M142 213L143 214L142 213z"/>
<path style="fill:#c1dcc2; stroke:none;" d="M143 213L144 214L143 213M85 214L86 215L85 214z"/>
<path style="fill:#7dba7f; stroke:none;" d="M86 214L87 215L86 214M138 214L139 215L138 214z"/>
<path style="fill:#c1dcc2; stroke:none;" d="M139 214L140 215L139 214M89 215L90 216L89 215z"/>
<path style="fill:#7dba7f; stroke:none;" d="M90 215L91 216L90 215M134 215L135 216L134 215z"/>
<path style="fill:#c1dcc2; stroke:none;" d="M135 215L136 216L135 215M94 216L95 217L94 216z"/>
<path style="fill:#a5cea6; stroke:none;" d="M95 216L96 217L95 216z"/>
<path style="fill:#7dba7f; stroke:none;" d="M96 216L97 217L96 216M128 216L129 217L128 216z"/>
<path style="fill:#a5cea6; stroke:none;" d="M129 216L130 217L129 216z"/>
<path style="fill:#c1dcc2; stroke:none;" d="M130 216L131 217L130 216M100 217L100 218L103 218L100 217z"/>
<path style="fill:#a5cea6; stroke:none;" d="M103 217L104 218L103 217z"/>
<path style="fill:#7dba7f; stroke:none;" d="M104 217L104 218L107 218L104 217M118 217L118 218L121 218L118 217z"/>
<path style="fill:#a5cea6; stroke:none;" d="M121 217L122 218L121 217z"/>
<path style="fill:#c1dcc2; stroke:none;" d="M122 217L122 218L125 218L122 217z"/>
</svg>
