<svg viewBox="0 0 9 11" fill="none" xmlns="http://www.w3.org/2000/svg">
<path d="M4.64238 10.4543C6.30838 10.4543 7.71939 9.3833 8.24639 7.9043H7.20939C6.75039 8.8563 5.76438 9.5023 4.64238 9.5023C3.06138 9.5023 1.76938 8.2103 1.76938 6.6293C1.76938 5.5073 2.41538 4.5213 3.36738 4.0623V3.0253C1.88838 3.5523 0.817383 4.9633 0.817383 6.6293C0.817383 8.7373 2.53438 10.4543 4.64238 10.4543ZM6.83539 5.7793V4.3853C7.31139 4.5043 7.68539 4.6573 7.68539 5.0653C7.68539 5.4393 7.36239 5.7113 6.83539 5.7793ZM6.18938 7.0713H6.86939V6.5443C7.87239 6.4253 8.51839 5.8473 8.51839 5.0653C8.51839 3.9773 7.65139 3.7393 6.83539 3.5863V2.1413C7.22639 2.1753 7.65139 2.2943 8.04239 2.4813V1.6313C7.66839 1.4953 7.26039 1.4103 6.86939 1.3933V0.883301H6.18938V1.3933C5.15238 1.5123 4.55738 2.0903 4.55738 2.8213C4.55738 3.9263 5.40738 4.1813 6.22338 4.3343V5.7793C5.73038 5.7113 5.20338 5.5073 4.59138 5.1843V6.0853C5.11838 6.3403 5.66238 6.5103 6.18938 6.5443V7.0713ZM6.22338 3.5183C5.74738 3.4163 5.39038 3.2463 5.39038 2.8213C5.39038 2.4303 5.69638 2.1923 6.22338 2.1413V3.5183Z" fill="white"/>
</svg>
