<svgd viewBox="0 0 13 7" fill="none" xmlns="http://www.w3.org/2000/svg">
<path d="M9.61275 0.37207C8.93795 0.37207 8.1991 0.739472 7.41939 1.46322C7.08659 1.77533 6.77648 2.11071 6.49143 2.46679C6.49143 2.46679 6.86968 2.90115 7.28474 3.36922C7.51068 3.08636 7.83144 2.70234 8.20566 2.35557C8.8976 1.70833 9.34948 1.57747 9.60972 1.57747C10.5816 1.57747 11.3709 2.39281 11.3709 3.39941C11.3709 4.39595 10.5816 5.21129 9.60972 5.22135C9.56231 5.22135 9.50835 5.21431 9.44076 5.20122C9.7242 5.33208 10.0313 5.4267 10.3183 5.4267C12.0996 5.4267 12.4506 4.19764 12.4708 4.11007C12.5212 3.88459 12.552 3.64855 12.552 3.40595C12.5485 1.73249 11.2327 0.37207 9.61275 0.37207ZM3.38725 6.62807C4.06205 6.62807 4.8009 6.26067 5.5806 5.53692C5.9134 5.22481 6.22352 4.88943 6.50857 4.53335C6.50857 4.53335 6.13032 4.09899 5.71526 3.63092C5.48931 3.91378 5.16856 4.2978 4.79434 4.64457C4.1024 5.28426 3.64699 5.42268 3.39028 5.42268C2.41843 5.42268 1.62914 4.60733 1.62914 3.60073C1.62914 2.60419 2.41843 1.78885 3.39028 1.77879C3.43769 1.77879 3.49165 1.78583 3.55923 1.79892C3.27579 1.66806 2.96866 1.57344 2.68169 1.57344C0.900385 1.56992 0.549369 2.79897 0.529196 2.89007C0.478762 3.11555 0.447998 3.35159 0.447998 3.59419C0.447998 5.26765 1.76431 6.62807 3.38725 6.62807ZM4.74341 2.4834C4.54772 2.29467 3.59655 1.52362 2.68522 1.49644C1.05875 1.45618 0.58316 2.6349 0.539282 2.7864C0.852977 1.46624 2.01395 0.479273 3.39028 0.472727C4.51394 0.472727 5.65121 1.57395 6.49193 2.56746L6.49495 2.56393C6.49495 2.56393 6.8732 2.99828 7.28776 3.46635C7.28776 3.46635 7.76033 4.02199 8.25962 4.51019C8.4553 4.69893 9.40345 5.45992 10.3148 5.48659C11.9852 5.5339 12.4476 4.28824 12.4708 4.19362C12.1642 5.52384 10.9997 6.51382 9.61627 6.52087C8.49262 6.52087 7.35535 5.41966 6.51159 4.42614C6.51159 4.42966 6.50857 4.42966 6.50857 4.43268C6.50857 4.43268 6.13032 3.99834 5.71526 3.53027C5.71878 3.53027 5.24623 2.97161 4.74341 2.4834Z" fill="white"/>
</svg>
