<svg viewBox="0 0 139 139" fill="none" xmlns="http://www.w3.org/2000/svg">
<path d="M116.593 130.36L116.593 130.359C115.959 128.629 115.377 126.873 114.85 125.095L114.845 125.078L114.841 125.062L114.824 124.997C113.06 119.067 111.619 112.239 111.09 105.864L111.056 105.446L111.33 105.128C119.844 95.2536 125 82.3287 125 68.1954C125 37.1479 100.138 12 69.5 12C38.8616 12 14 37.1479 14 68.1954C14 99.2428 38.8616 124.391 69.5 124.391H69.5016C74.9959 124.399 80.4688 123.574 85.7808 121.935L86.2011 121.805L86.5807 122.027C90.1686 124.127 97.9771 128.002 110.792 130.945C112.452 131.325 114.118 131.674 115.788 131.99C116.006 132.03 116.258 131.944 116.466 131.621C116.679 131.291 116.76 130.813 116.593 130.36Z" fill="white" stroke="#E5E7EB" class="discord-button" stroke-width="2"/>
<path d="M66.888 80.456H72.216V77.36C72.216 72.968 75.312 69.944 78.552 66.848C82.008 63.536 85.608 60.152 85.608 54.824C85.608 48.776 81.72 42.872 71.928 42.872C63.144 42.872 57.168 48.776 56.664 57.2H62.28C62.784 51.512 66.456 47.84 71.856 47.84C77.184 47.84 79.56 50.792 79.56 55.04C79.56 58.496 77.112 61.088 74.304 63.896C70.704 67.424 66.888 71.024 66.888 76.856V80.456ZM69.408 95.36C71.928 95.36 74.016 93.344 74.016 90.752C74.016 88.16 71.928 86.144 69.408 86.144C66.888 86.144 64.8 88.16 64.8 90.752C64.8 93.344 66.888 95.36 69.408 95.36Z" fill="#111827"/>
</svg>
