<svg viewBox="0 0 113 123" fill="none" xmlns="http://www.w3.org/2000/svg">
<path d="M97.68 120.432C99.347 120.814 101.019 121.164 102.696 121.482C103.158 121.567 103.595 121.344 103.887 120.891C104.181 120.435 104.285 119.794 104.063 119.188V119.187C103.432 117.467 102.854 115.721 102.329 113.953L102.327 113.944L102.325 113.936L102.306 113.863C100.548 107.956 99.114 101.16 98.589 94.822L98.571 94.613L98.708 94.454C107.298 84.4922 112.5 71.4523 112.5 57.1954C112.5 25.8776 87.42 0.5 56.5 0.5C25.5798 0.5 0.5 25.8776 0.5 57.1954C0.5 88.5132 25.5798 113.891 56.5 113.891H56.5008C62.0459 113.899 67.5688 113.066 72.9283 111.413L73.1384 111.348L73.3282 111.459C76.9584 113.583 84.814 117.478 97.68 120.432ZM97.68 120.432L97.568 120.919L97.68 120.432ZM97.68 120.432L97.568 120.919L97.68 120.432ZM97.568 120.919C99.242 121.303 100.921 121.654 102.604 121.973L97.568 120.919Z" fill="white" stroke="#E5E7EB" class="discord-button"/>
<path d="M53.8881 69.456H59.2161V66.36C59.2161 61.968 62.3121 58.944 65.5521 55.848C69.0081 52.536 72.6081 49.152 72.6081 43.824C72.6081 37.776 68.7201 31.872 58.9281 31.872C50.1441 31.872 44.1681 37.776 43.6641 46.2H49.2801C49.7841 40.512 53.4561 36.84 58.8561 36.84C64.1841 36.84 66.5601 39.792 66.5601 44.04C66.5601 47.496 64.1121 50.088 61.3041 52.896C57.7041 56.424 53.8881 60.024 53.8881 65.856V69.456ZM56.4081 84.36C58.9281 84.36 61.0161 82.344 61.0161 79.752C61.0161 77.16 58.9281 75.144 56.4081 75.144C53.8881 75.144 51.8001 77.16 51.8001 79.752C51.8001 82.344 53.8881 84.36 56.4081 84.36Z" fill="#111827"/>
</svg>
