<svg width="24" height="24" viewBox="0 0 24 24" fill="none" xmlns="http://www.w3.org/2000/svg">
<path d="M23.0049 13.7515C22.6166 13.2391 22.4076 12.6226 22.4076 11.99C22.4076 11.3574 22.6166 10.7409 23.0049 10.2285L23.8007 9.17767C23.898 9.04935 23.9621 8.90078 23.9876 8.74418C24.013 8.58758 23.9993 8.42744 23.9473 8.27693C23.8949 8.128 23.8071 7.99268 23.6908 7.88156C23.5746 7.77045 23.433 7.68654 23.2772 7.6364L21.9893 7.23607C21.3583 7.04155 20.8084 6.66044 20.4188 6.14776C20.0293 5.63509 19.8202 5.01735 19.8218 4.38371V3.08264C19.8217 2.92467 19.7824 2.76898 19.7073 2.62829C19.6321 2.4876 19.5232 2.36591 19.3894 2.27317C19.2556 2.18043 19.1008 2.11928 18.9375 2.09472C18.7742 2.07016 18.6072 2.08288 18.4501 2.13185L17.1517 2.53218C16.5214 2.72715 15.8427 2.72662 15.2126 2.53069C14.5826 2.33476 14.0336 1.95345 13.6439 1.44128L12.8481 0.390415C12.7465 0.268623 12.6175 0.170279 12.4707 0.102689C12.3239 0.0350988 12.163 0 12 0C11.837 0 11.6761 0.0350988 11.5293 0.102689C11.3825 0.170279 11.2535 0.268623 11.1519 0.390415L10.3561 1.44128C9.96644 1.95345 9.41737 2.33476 8.78735 2.53069C8.15734 2.72662 7.47864 2.72715 6.8483 2.53218L5.54991 2.13185C5.39278 2.08288 5.22576 2.07016 5.0625 2.09472C4.89924 2.11928 4.74438 2.18043 4.61059 2.27317C4.4768 2.36591 4.36788 2.4876 4.29273 2.62829C4.21758 2.76898 4.17834 2.92467 4.17821 3.08264V4.38371C4.17982 5.01735 3.97075 5.63509 3.58117 6.14776C3.19158 6.66044 2.64165 7.04155 2.01073 7.23607L0.722807 7.6364C0.566991 7.68654 0.42542 7.77045 0.309165 7.88156C0.19291 7.99268 0.105123 8.128 0.0526677 8.27693C0.000743919 8.42744 -0.0130424 8.58758 0.0124433 8.74418C0.037929 8.90078 0.101958 9.04935 0.199261 9.17767L0.995051 10.2285C1.38336 10.7409 1.59243 11.3574 1.59243 11.99C1.59243 12.6226 1.38336 13.2391 0.995051 13.7515L0.199261 14.8023C0.101958 14.9306 0.037929 15.0792 0.0124433 15.2358C-0.0130424 15.3924 0.000743919 15.5526 0.0526677 15.7031C0.105123 15.852 0.19291 15.9873 0.309165 16.0984C0.42542 16.2095 0.566991 16.2935 0.722807 16.3436L2.01073 16.7439C2.64165 16.9384 3.19158 17.3195 3.58117 17.8322C3.97075 18.3449 4.17982 18.9626 4.17821 19.5963V20.8974C4.17834 21.0553 4.21758 21.211 4.29273 21.3517C4.36788 21.4924 4.4768 21.6141 4.61059 21.7068C4.74438 21.7996 4.89924 21.8607 5.0625 21.8853C5.22576 21.9098 5.39278 21.8971 5.54991 21.8481L6.83783 21.4478C7.46951 21.2496 8.15078 21.2484 8.7832 21.4445C9.41561 21.6406 9.96643 22.0238 10.3561 22.5387L11.1519 23.5896C11.2496 23.7168 11.3773 23.8202 11.5247 23.8915C11.672 23.9628 11.8348 24 12 24C12.1651 24 12.328 23.9628 12.4753 23.8915C12.6227 23.8202 12.7504 23.7168 12.8481 23.5896L13.6439 22.5387C14.0342 22.0245 14.5851 21.6419 15.2173 21.4459C15.8495 21.2498 16.5304 21.2505 17.1622 21.4478L18.4501 21.8481C18.6072 21.8971 18.7742 21.9098 18.9375 21.8853C19.1008 21.8607 19.2556 21.7996 19.3894 21.7068C19.5232 21.6141 19.6321 21.4924 19.7073 21.3517C19.7824 21.211 19.8217 21.0553 19.8218 20.8974V19.5963C19.8202 18.9626 20.0293 18.3449 20.4188 17.8322C20.8084 17.3195 21.3583 16.9384 21.9893 16.7439L23.2772 16.3436C23.433 16.2935 23.5746 16.2095 23.6908 16.0984C23.8071 15.9873 23.8949 15.852 23.9473 15.7031C23.9993 15.5526 24.013 15.3924 23.9876 15.2358C23.9621 15.0792 23.898 14.9306 23.8007 14.8023L23.0049 13.7515ZM16.9318 10.6959L11.6963 15.7001C11.5 15.8877 11.2337 15.9931 10.956 15.9931C10.6784 15.9931 10.4121 15.8877 10.2158 15.7001L7.07447 12.6976C6.97447 12.6053 6.8947 12.4948 6.83982 12.3727C6.78494 12.2506 6.75606 12.1193 6.75485 11.9864C6.75364 11.8535 6.78013 11.7217 6.83278 11.5987C6.88543 11.4757 6.96318 11.364 7.06149 11.27C7.15981 11.176 7.27672 11.1017 7.4054 11.0514C7.53409 11.0011 7.67197 10.9758 7.811 10.9769C7.95003 10.9781 8.08743 11.0057 8.21518 11.0581C8.34293 11.1106 8.45847 11.1868 8.55506 11.2824L10.9529 13.5773L15.4481 9.28076C15.6456 9.09845 15.9101 8.99757 16.1846 8.99985C16.4591 9.00213 16.7218 9.10739 16.9159 9.29295C17.1101 9.47851 17.2202 9.72953 17.2226 9.99194C17.2249 10.2544 17.1194 10.5072 16.9287 10.6959H16.9318Z" fill="#1B66F8"/>
</svg>
