<svg width="326" height="326" viewBox="0 0 326 326" fill="none" xmlns="http://www.w3.org/2000/svg">
<circle cx="163.5" cy="163.5" r="96.5" fill="white"/>
<path d="M312.484 186.791C307.209 179.831 304.369 171.458 304.369 162.864C304.369 154.271 307.209 145.897 312.484 138.938L323.293 124.663C324.615 122.92 325.485 120.902 325.831 118.775C326.177 116.648 325.99 114.473 325.285 112.428C324.572 110.405 323.38 108.567 321.8 107.058C320.221 105.549 318.298 104.409 316.182 103.728L298.688 98.2899C290.118 95.6477 282.648 90.471 277.356 83.5071C272.064 76.5432 269.224 68.1523 269.246 59.5454V41.8725C269.244 39.7268 268.711 37.612 267.69 35.7009C266.67 33.7899 265.19 32.1369 263.373 30.8772C261.555 29.6175 259.452 28.7869 257.234 28.4533C255.017 28.1197 252.748 28.2925 250.614 28.9577L232.977 34.3955C224.415 37.0437 215.196 37.0366 206.638 34.3752C198.081 31.7138 190.623 26.5344 185.33 19.5774L174.521 5.30314C173.14 3.6488 171.388 2.31296 169.394 1.39486C167.399 0.476759 165.214 0 163 0C160.786 0 158.601 0.476759 156.606 1.39486C154.612 2.31296 152.86 3.6488 151.479 5.30314L140.67 19.5774C135.377 26.5344 127.919 31.7138 119.362 34.3752C110.804 37.0366 101.585 37.0437 93.0228 34.3955L75.3862 28.9577C73.2519 28.2925 70.9832 28.1197 68.7656 28.4533C66.548 28.7869 64.4445 29.6175 62.6272 30.8772C60.8099 32.1369 59.3303 33.7899 58.3095 35.7009C57.2887 37.612 56.7557 39.7268 56.7541 41.8725V59.5454C56.7759 68.1523 53.936 76.5432 48.6442 83.5071C43.3524 90.471 35.8824 95.6477 27.3124 98.2899L9.81813 103.728C7.70162 104.409 5.77862 105.549 4.19949 107.058C2.62036 108.567 1.42792 110.405 0.715402 112.428C0.0101049 114.473 -0.177159 116.648 0.169022 118.775C0.515202 120.902 1.38493 122.92 2.70662 124.663L13.5161 138.938C18.7906 145.897 21.6305 154.271 21.6305 162.864C21.6305 171.458 18.7906 179.831 13.5161 186.791L2.70662 201.065C1.38493 202.808 0.515202 204.826 0.169022 206.953C-0.177159 209.08 0.0101049 211.256 0.715402 213.3C1.42792 215.323 2.62036 217.161 4.19949 218.67C5.77862 220.18 7.70162 221.319 9.81813 222L27.3124 227.438C35.8824 230.081 43.3524 235.257 48.6442 242.221C53.936 249.185 56.7759 257.576 56.7541 266.183V283.856C56.7557 286.001 57.2887 288.116 58.3095 290.027C59.3303 291.938 60.8099 293.591 62.6272 294.851C64.4445 296.111 66.548 296.941 68.7656 297.275C70.9832 297.609 73.2519 297.436 75.3862 296.771L92.8805 291.333C101.461 288.64 110.715 288.624 119.305 291.288C127.895 293.951 135.377 299.156 140.67 306.151L151.479 320.425C152.807 322.153 154.542 323.558 156.544 324.527C158.545 325.495 160.757 326 163 326C165.243 326 167.455 325.495 169.456 324.527C171.458 323.558 173.193 322.153 174.521 320.425L185.33 306.151C190.631 299.166 198.114 293.969 206.701 291.306C215.288 288.644 224.538 288.653 233.119 291.333L250.614 296.771C252.748 297.436 255.017 297.609 257.234 297.275C259.452 296.941 261.555 296.111 263.373 294.851C265.19 293.591 266.67 291.938 267.69 290.027C268.711 288.116 269.244 286.001 269.246 283.856V266.183C269.224 257.576 272.064 249.185 277.356 242.221C282.648 235.257 290.118 230.081 298.688 227.438L316.182 222C318.298 221.319 320.221 220.18 321.8 218.67C323.38 217.161 324.572 215.323 325.285 213.3C325.99 211.256 326.177 209.08 325.831 206.953C325.485 204.826 324.615 202.808 323.293 201.065L312.484 186.791ZM229.99 145.286L158.875 213.259C156.208 215.808 152.591 217.239 148.82 217.239C145.048 217.239 141.431 215.808 138.764 213.259L96.0949 172.475C94.7365 171.221 93.6529 169.721 92.9075 168.063C92.1621 166.404 91.7698 164.62 91.7534 162.815C91.7369 161.01 92.0968 159.22 92.812 157.549C93.5271 155.879 94.5832 154.361 95.9186 153.084C97.2541 151.808 98.8421 150.798 100.59 150.115C102.338 149.431 104.211 149.087 106.099 149.103C107.988 149.119 109.854 149.494 111.59 150.206C113.325 150.919 114.894 151.954 116.206 153.253L148.777 184.425L209.836 126.064C212.519 123.587 216.112 122.217 219.841 122.248C223.57 122.279 227.137 123.709 229.774 126.229C232.412 128.75 233.907 132.159 233.94 135.724C233.972 139.288 232.539 142.722 229.948 145.286H229.99Z" fill="#1B66F8"/>
</svg>
